<svg xmlns="http://www.w3.org/2000/svg" width="0" height="0" class="sr-only" focusable="false" aria-hidden="true">
	<defs>
		<filter id="goo">
			<feGaussianBlur in="SourceGraphic" stdDeviation="8" result="blur"></feGaussianBlur>
			<feColorMatrix in="blur" mode="matrix" values="1 0 0 0 0  0 1 0 0 0  0 0 1 0 0  0 0 0 16 -8" result="goo"></feColorMatrix>
			<feBlend in="SourceGraphic" in2="goo"></feBlend>
		</filter>
	</defs>

	<symbol id="logo" viewBox="0 0 197 86">
		<title>The Movies</title>
		<path id="shadow" fill-rule="evenodd" clip-rule="evenodd" d="M28.5,2.8H5V17h4.8V9.7c0.1-0.8,0.9-1,1.2-1c1,0,1.1,1.1,1.1,1.1v43.3
	C10.8,61.3,0,73.9,0,73.9V86h3.5C8,72,25.6,60,29.1,57.8l0,0c0,0,17.9-11.8,33.3-12.4h0.4V27.2h-4.2v9.9c0,0,0.1,1.3-1.4,1.3
	c-0.4,0-1.3,0-1.3-1.3V26.2c0,0-0.8-2.5,6.8-1.8v-3.1h-4.1c0,0-2.6,0.1-2.7-4.4V9.7c0,0,0-1.2,1.3-1.2c0.2,0,1.5,0,1.5,1.1v7.3h4.1
	V2.8h-34H28.5z M46.7,37.1V9.9c0.5-1.7,2.6-1.3,2.6-1.3v29.8C46.6,38.4,46.7,37.1,46.7,37.1z M37.5,9.9c0,0,0-1.2,1.3-1.2
	c0,0,1.3,0,1.4,1.1c0.1,1.1,0,10.3,0,10.3s-0.1,1.2-1.4,1.2c0,0-1.3,0-1.3-1.2V9.9z M37.5,25.7c0,0,0-1.3,1.3-1.3c0,0,1.4,0,1.4,1.3
	v18.9c0,0-0.2,1.1-1.4,1.1c0,0-1.3,0-1.3-1.2V25.7z M30.6,10.2V42c0,0-0.6,1.7-1.9,3.8l0-0.2c-0.7,1.8-4.5,5.7-4.5,5.7
	c-2,1.4-2-0.8-2-0.8l0.1-40.7c0.1-0.8,0.8-1.1,1.1-1.1c1.1,0,1.2,1.1,1.2,1.1v7.1h4.2V8.5C29.3,8.6,30.6,8.8,30.6,10.2z M132.3,8.7
	h1.1l-3,14.1l-3.3-14.1h1.4V3.3h-9.3v1.5c-0.4-1.3-1.9-1.6-1.9-1.6H107h-7c-1.8,0-2.5,1.3-2.7,2v-2H87l-5.5,14.6L77.3,3.4h-8.8v5.3
	c0,0,3.3-0.4,3.3,3v25.7c0,0,0.3,2.3-3.3,2.3v5.8h10.8v-5.8c0,0-3.6-0.1-3.5-2.2V30l5.7,9.7L87,30v7.4c0,0-1.4,2.3-3.2,2.3v5.8h13.7
	v-2.3c0.8,2.1,3.5,2.2,3.5,2.2h14.9c2.6-0.2,3.6-3.4,3.6-3.4v-2.4V8.7h0.5l8.8,36.7h3.5l6.5-33.7c0.8-2.6,2-3,2-3V3.3h-8.4V8.7z
	 M93.9,37.4V11.7c0,0-0.5-3.1,3.4-3.1c0,0-0.1,23.1,0,31.1C96.4,39.6,93.8,39,93.9,37.4z M109.8,11.6v25.7c-0.1,1.6-1.3,2.2-1.3,2.2
	c-1.3,0-1.5-2.2-1.5-2.2V11.6c0-3.1,1.5-3,1.5-3C109.9,8.6,109.8,11.6,109.8,11.6z M179.3,21.9l-0.1-10.5c0,0,0-2.7,3.7-2.7
	c0,0,3.7,0.1,3.7,2.7v5.1h4.6V3.1h-4.6v2.5c0,0-2.8-2.4-8.2-2.8c0,0-8.8-0.3-8.7,3.1V3.3h-29v5.3c0,0,3-0.7,3,3v25.5
	c0,0,0.1,2.4-3,2.4v5.7c0,0,37.2,11.1,50.6,40.6h5.7v-49L179.3,21.9z M154.6,40.5c0,0-2.6-0.9-2.6-5.1V12.5c0,0-0.3-3.6,2.4-3.8
	c0.1,0,0.1,0,0.2,0V40.5z M163.9,8.7c0,0,1.4-0.4,1.4,2.9v5h4.4v5.3h-7h-0.1V11.7C162.6,11.7,162.3,8.7,163.9,8.7z M187,58.6
	c0,0-10.4,4.9-10.5-6.4v-8.7h-6.7V29.9h-4.4v13.4c0,0,0.2,2-1.4,2c0,0-1.2-0.1-1.3-1.8c-0.1-1.6,0-18.3,0.2-18.3h7L187,39.5V58.6z"></path>
	<path id="logo" fill-rule="evenodd" clip-rule="evenodd" fill="currentColor" d="M28.6,0H5v14.2h4.8V6.9c0.1-0.8,0.9-1,1.2-1
	c1,0,1.1,1.1,1.1,1.1v43.3C10.8,58.5,0,71.1,0,71.1v12.1h3.5C8,69.1,25.9,57,29.2,54.9l0,0.1c0,0,17.9-11.8,33.3-12.4h0.4V25.4h-4.2
	v8.9c0,0,0.1,1.3-1.4,1.3c-0.4,0-1.3,0-1.3-1.3V23.4c0,0-0.8-2.5,6.8-1.8v-3.1h-4.1c0,0-2.6,0.1-2.7-4.4V6.9c0,0,0-1.2,1.3-1.2
	c0.2,0,1.5,0,1.5,1.1v7.3h4.1V0H28.8H28.6z M46.7,34.3V7.1c0.5-1.7,2.6-1.3,2.6-1.3v29.8C46.6,35.6,46.7,34.3,46.7,34.3z M37.5,7.1
	c0,0,0-1.2,1.3-1.2c0,0,1.3,0,1.4,1.1c0.1,1.1,0,10.3,0,10.3s-0.1,1.2-1.4,1.2c0,0-1.3,0-1.3-1.2V7.1z M37.5,22.9c0,0,0-1.3,1.3-1.3
	c0,0,1.4,0,1.4,1.3v18.8c0,0-0.2,1.1-1.4,1.1c0,0-1.3,0-1.3-1.2V22.9z M30.6,7.4v31.7c0,0-0.6,1.7-1.9,3.8l0-0.2
	c-0.7,1.8-4.5,5.7-4.5,5.7c-2,1.4-2-0.8-2-0.8l0.1-40.7c0.1-0.8,0.8-1.1,1.1-1.1c1.1,0,1.2,1.1,1.2,1.1V14h4.2V5.7
	C29.3,5.8,30.6,6,30.6,7.4z M132.3,5.8h1.1l-3,14.1l-3.3-14.1h1.4V0.4h-9.3V2c-0.4-1.3-1.9-1.6-1.9-1.6H107h-7c-1.8,0-2.5,1.3-2.7,2
	V0.3H87l-5.5,14.6L77.3,0.5h-8.8v5.4c0,0,3.3-0.4,3.3,3v25.7c0,0,0.3,2.3-3.3,2.3v5.8h10.8v-5.8c0,0-3.6-0.1-3.5-2.2v-7.5l5.7,9.7
	l5.5-9.7v7.4c0,0-1.4,2.3-3.2,2.3v5.8h13.7v-2.3c0.8,2.1,3.5,2.2,3.5,2.2h14.9c2.6-0.2,3.6-3.4,3.6-3.4v-2.4V5.9h0.5l8.8,36.6h3.5
	l6.5-33.7c0.8-2.6,2-3,2-3V0.4h-8.4V5.8z M93.9,34.6V8.8c0,0-0.5-3.1,3.4-3.1v0.1c0,0-0.1,23.1,0,31.1
	C96.4,36.8,93.8,36.2,93.9,34.6z M109.8,8.8v25.7c-0.1,1.6-1.3,2.2-1.3,2.2c-1.3,0-1.5-2.2-1.5-2.2V8.8c0-3.1,1.6-3,1.5-3
	C109.9,5.8,109.8,8.8,109.8,8.8z M179.3,19.1l-0.1-10.5c0,0,0-2.7,3.7-2.7c0,0,3.7,0.1,3.7,2.7v5.1h4.6V0.3h-4.6v2.5
	c0,0-2.8-2.4-8.2-2.8c0,0-8.8-0.3-8.7,3.1V0.5h-29v5.3c0,0,3-0.7,3,3v25.5c0,0,0.1,2.4-3,2.4v5.7c0,0,37.2,11.1,50.6,40.6h5.7v-49
	L179.3,19.1z M154.6,37.5c0,0-2.6-0.9-2.6-5.1V9.6c0,0-0.3-3.5,2.4-3.7c0.1,0,0.1,0,0.2,0V37.5z M163.9,5.9c0,0,1.4-0.4,1.4,2.9v5
	h4.4v5.3h-7h-0.1V8.9C162.6,8.9,162.3,5.9,163.9,5.9z M187,55.8c0,0-10.4,4.9-10.5-6.4v-8.7h-6.7V27.1h-4.4v13.4c0,0,0.2,2-1.4,2
	c0,0-1.2-0.1-1.3-1.8c-0.1-1.7,0-18.3,0.2-18.3h7L187,36.7V55.8z"></path>

	</symbol>
</svg>