<svg xmlns="http://www.w3.org/2000/svg" viewBox="0 0 237 209" fill="#af1b0b">
	<title>camera loader</title>
	<style>
		.rotate {
			animation: rotate 1.5s linear infinite;
		}

		.front-roll {
			animation-delay: 0.1s;
			animation-duration: 1.75s;
		}

		@keyframes rotate {
			from {
				transform: rotate(0);
			}

			to {
				transform: rotate(360deg);
			}
		}
	</style>

	<g transform="translate(48 48)">
		<g class="back-roll  rotate">
			<g transform="translate(-48 -48)">
				<path d="M48,96A48.05,48.05,0,0,1,0,48,47.54,47.54,0,0,1,4.06,28.66a4,4,0,1,1,7.32,3.24A39.53,39.53,0,0,0,8,48,40,40,0,1,0,31.89,11.38a4,4,0,0,1-3.22-7.32A48,48,0,1,1,48,96ZM61,25.48a13,13,0,1,0-13,13A13,13,0,0,0,61,25.48Zm-6,0a7,7,0,1,1-7-7A7,7,0,0,1,55,25.48ZM83.52,48a13,13,0,1,0-13,13A13,13,0,0,0,83.52,48Zm-6,0a7,7,0,1,1-7-7A7,7,0,0,1,77.52,48ZM61,70.52a13,13,0,1,0-13,13A13,13,0,0,0,61,70.52Zm-6,0a7,7,0,1,1-7-7A7,7,0,0,1,55,70.52ZM38.48,48a13,13,0,1,0-13,13A13,13,0,0,0,38.48,48Zm-6,0a7,7,0,1,1-7-7A7,7,0,0,1,32.48,48ZM48,44a4,4,0,1,0,4,4A4,4,0,0,0,48,44ZM17.42,13.44a4,4,0,1,0,4,4A4,4,0,0,0,17.42,13.44Z"/>
			</g>
		</g>
	</g>
	<g transform="translate(144 48)">
		<g class="front-roll  rotate">
			<g transform="translate(-144 -48)">
				<path d="M144,96A48.05,48.05,0,0,1,96,48a47.54,47.54,0,0,1,4.06-19.34,4,4,0,1,1,7.32,3.24A39.53,39.53,0,0,0,104,48a40,40,0,1,0,23.89-36.62,4,4,0,1,1-3.22-7.32A48,48,0,1,1,144,96Zm13-70.52a13,13,0,1,0-13,13A13,13,0,0,0,157,25.48Zm-6,0a7,7,0,1,1-7-7A7,7,0,0,1,151,25.48ZM179.52,48a13,13,0,1,0-13,13A13,13,0,0,0,179.52,48Zm-6,0a7,7,0,1,1-7-7A7,7,0,0,1,173.52,48ZM157,70.52a13,13,0,1,0-13,13A13,13,0,0,0,157,70.52Zm-6,0a7,7,0,1,1-7-7A7,7,0,0,1,151,70.52ZM134.48,48a13,13,0,1,0-13,13A13,13,0,0,0,134.48,48Zm-6,0a7,7,0,1,1-7-7A7,7,0,0,1,128.48,48ZM144,44a4,4,0,1,0,4,4A4,4,0,0,0,144,44ZM113.42,13.44a4,4,0,1,0,4,4A4,4,0,0,0,113.42,13.44Z"/>
			</g>
		</g>
	</g>
	<path d="M90.45,160.66H26.33a6,6,0,0,1-6-6V112.25a6,6,0,0,1,6-6H90.45a6,6,0,0,1,6,6v42.36A6,6,0,0,1,90.45,160.66Zm-62.11-8.07H88.45V114.27H28.34Zm95.27,36.3h-2a13.09,13.09,0,0,1-13-13.11V119.32a13.09,13.09,0,0,1,13-13.12h2a13.08,13.08,0,0,1,13,13.12v56.46A13.08,13.08,0,0,1,123.61,188.89Zm-2-74.62a5,5,0,0,0-5,5v56.46a5,5,0,0,0,5,5.05h2a5,5,0,0,0,5-5.05V119.32a5,5,0,0,0-5-5Zm41.3-8.07h-1.36a13.41,13.41,0,0,0-13.35,13.43v27.59a13.44,13.44,0,0,0,10,13V189a4,4,0,1,0,8,0V160.22a13.43,13.43,0,0,0,10-13V119.63A13.4,13.4,0,0,0,162.92,106.2Zm5.33,41a5.36,5.36,0,0,1-5.33,5.37h-1.36a5.36,5.36,0,0,1-5.33-5.37V119.63a5.35,5.35,0,0,1,5.33-5.36h1.36a5.35,5.35,0,0,1,5.33,5.36ZM36.34,169.94c-4.42,0-8,2.71-8,6.05s3.58,6,8,6,8-2.71,8-6S40.76,169.94,36.34,169.94Zm22,0c-4.42,0-8,2.71-8,6.05s3.58,6,8,6,8-2.71,8-6S62.81,169.94,58.39,169.94Zm22.06,0c-4.42,0-8,2.71-8,6.05s3.59,6,8,6,8-2.71,8-6S84.87,169.94,80.45,169.94ZM219,103.26a12.06,12.06,0,0,0-11.63,9.06l-15,5.05V102.1a12.07,12.07,0,0,0-12-12.1H16A12.07,12.07,0,0,0,4,102.1v94.8A12.07,12.07,0,0,0,16,209H180.33a12.07,12.07,0,0,0,12-12.1V166.52l15,6.15A12,12,0,0,0,219,181.92a18.11,18.11,0,0,0,18-18.15V121.41A18.11,18.11,0,0,0,219,103.26ZM184.34,196.9a4,4,0,0,1-4,4H16a4,4,0,0,1-4-4V102.1a4,4,0,0,1,4-4H180.33a4,4,0,0,1,4,4Zm8-71L206.94,121v42.85l-14.59-6ZM229,163.77a10.06,10.06,0,0,1-10,10.08,4,4,0,0,1-4-4V115.36a4,4,0,0,1,4-4,10.06,10.06,0,0,1,10,10.08Z"/>
</svg>
