<svg class="pwa-share__icon close-icon btn__icon svg-inline" xmlns="http://www.w3.org/2000/svg" width="20" height="20" viewBox="0 0 20 20" fill="none">
							<path d="M19.9665 15.6521C19.9665 18.0548 18.0533 19.9236 15.6951 19.9236C13.2924 19.9236 11.4237 18.0548 11.4237 15.6521C11.4237 15.5187 11.4237 15.3407 11.4682 15.1627L7.24124 13.0715C6.48484 13.7834 5.41698 14.2283 4.30463 14.2283C1.90195 14.2283 0.0332031 12.3596 0.0332031 9.9569C0.0332031 7.59872 1.90195 5.68547 4.30463 5.68547C5.41698 5.68547 6.48484 6.17491 7.24124 6.88681L11.4682 4.79559C11.4237 4.61762 11.4237 4.43964 11.4237 4.26166C11.4237 1.90348 13.2924 -0.00976562 15.6951 -0.00976562C18.0533 -0.00976562 19.9665 1.90348 19.9665 4.26166C19.9665 6.66434 18.0533 8.53309 15.6951 8.53309C14.5383 8.53309 13.4704 8.08815 12.714 7.37625L8.48707 9.46747C8.53157 9.64544 8.57606 9.77893 8.57606 9.9569C8.57606 10.1349 8.53157 10.3129 8.48707 10.4908L12.714 12.5821C13.4704 11.8701 14.5383 11.3807 15.6951 11.3807C18.0533 11.3807 19.9665 13.294 19.9665 15.6521Z" fill="#36332F"></path>
						</svg>