<svg class="pwa-nav__icon" xmlns="http://www.w3.org/2000/svg" width="26" height="23" fill="none">
									<path fill="#36332F" d="M13.03 0c7.16 0 12.95 4.773 12.95 10.563 0 5.84-5.79 10.562-12.95 10.562-1.676 0-3.3-.254-4.722-.71-1.524 1.066-3.961 2.335-7.06 2.335-.507 0-.964-.254-1.167-.71-.152-.458-.102-.966.254-1.321.05 0 1.625-1.727 2.336-3.707C.995 15.234.03 13 .03 10.562.03 4.774 5.818 0 13.03 0Zm0 18.688c5.79 0 10.563-3.606 10.563-8.125 0-4.47-4.774-8.126-10.563-8.126-5.84 0-10.562 3.657-10.562 8.126 0 2.183 1.066 3.808 1.98 4.773l1.067 1.117-.559 1.422a9.495 9.495 0 0 1-1.016 2.031 11.33 11.33 0 0 0 2.946-1.472l.965-.711 1.167.355c1.27.406 2.641.61 4.012.61Z"></path>
								</svg>