<svg class="footer__pin" xmlns="http://www.w3.org/2000/svg" viewBox="0 0 58 73" role="img" focusable="false" aria-hidden="true">
			<a href="https://www.google.com/maps/dir/Haarlemmerdijk+161,+Amsterdam" target="_blank">
				<path fill-rule="evenodd" clip-rule="evenodd" fill="#fff" d="M25,1.5c6.5,0,12.4,2.6,16.6,6.9c4.3,4.2,6.9,10.1,6.9,16.6
					c0,8.8-11.6,26-18.8,37c-1.2,1.8-2.2,3.4-3.1,4.8l0,0L26,67.5c-0.4,0.6-0.7,1.1-1,1.6c-0.3-0.5-0.6-1-1-1.6l0,0l-0.5-0.8
					c-0.9-1.4-2-3-3.1-4.8c-7.3-11-18.8-28.2-18.8-37c0-6.5,2.6-12.3,6.9-16.6C12.6,4.1,18.5,1.5,25,1.5z"></path>
				<path fill="#B80F0B" d="M25,72l-1.3-2.1c-0.3-0.5-0.6-1-1-1.6l-0.5-0.8c-0.9-1.3-1.9-2.9-3-4.5l-0.8-1.2C10.7,50,0,33.9,0,25
					C0,18.3,2.6,12,7.3,7.3C12,2.6,18.3,0,25,0s13,2.6,17.7,7.3S50,18.3,50,25c0,9-10.7,25.1-18.4,36.8L30.8,63c-1.1,1.7-2.1,3.2-3,4.5
					l-0.5,0.8c-0.4,0.6-0.7,1.1-1,1.6L25,72z M25,3C19.1,3,13.6,5.3,9.4,9.4C5.3,13.6,3,19.1,3,25C3,33,13.8,49.3,21,60.1l0.8,1.2
					c1.1,1.7,2.1,3.2,3,4.6l0.3,0.4l0.3-0.4c0.9-1.4,1.9-2.9,3-4.6l0.8-1.2C36.2,49.3,47,33,47,25c0-5.9-2.3-11.4-6.4-15.5
					C36.4,5.3,30.9,3,25,3z"></path>
				<path id="Fill-6" fill-rule="evenodd" clip-rule="evenodd" fill="#B80F0B" d="M15.2,14.1v3.3c0,0,2.1-0.3,2.1,1.8V35
					c0,0,0.2,1.4-2,1.4V40h6.6v-3.5c0,0-2.2,0-2.1-1.3v-4.6l3.5,5.9l3.4-5.9v4.6c0,0-0.8,1.4-2,1.4V40h8.5v-3.5c0,0-2.3-0.3-2.2-1.4
					V19.2c0,0-0.3-2,2.1-1.9V14h-6.4l-3.4,9l-2.6-8.9H15.2z"></path>
			</a>
		</svg>