<svg class="pwa-nav__icon" xmlns="http://www.w3.org/2000/svg" width="26" height="26" fill="none">
									<path fill="#36332F" fill-rule="evenodd" d="M20.556 5.34H5a2.5 2.5 0 0 0-2.5 2.5V21A2.5 2.5 0 0 0 5 23.5h15.556a2.5 2.5 0 0 0 2.5-2.5V7.84a2.5 2.5 0 0 0-2.5-2.5ZM5 2.84a5 5 0 0 0-5 5V21a5 5 0 0 0 5 5h15.556a5 5 0 0 0 5-5V7.84a5 5 0 0 0-5-5H5Z" clip-rule="evenodd"></path>
									<path fill="#36332F" fill-rule="evenodd" d="M24.846 12.778H.709v-2h24.137v2ZM9.406 0v7.099h-2v-7.1h2ZM18.99 0v7.099h-2v-7.1h2Z" clip-rule="evenodd"></path>
								</svg>