<svg class="pwa-nav__icon pwa-nav__icon" xmlns="http://www.w3.org/2000/svg" width="26" height="26" fill="none">
									<path fill="#36332F" fill-rule="evenodd" d="M15.732 23.474a.39.39 0 0 1-.553 0L2.461 10.755a.391.391 0 0 1 0-.553l.921-.921c.18-.18.413-.296.664-.332L5.4 8.755A3.52 3.52 0 0 0 8.387 5.77l.193-1.355c.036-.25.153-.484.332-.663l1.29-1.29a.391.391 0 0 1 .553 0l12.719 12.718a.39.39 0 0 1 0 .553l-7.742 7.742Zm-2.212 1.659a2.737 2.737 0 0 0 3.871 0l7.742-7.742a2.737 2.737 0 0 0 0-3.87L12.414.8a2.737 2.737 0 0 0-3.87 0l-1.29 1.291a3.52 3.52 0 0 0-.996 1.99l-.194 1.355c-.074.517-.48.922-.995.996l-1.355.193a3.52 3.52 0 0 0-1.99.996l-.922.921a2.737 2.737 0 0 0 0 3.871L13.52 25.133Zm-5.048-9.82.995-.995-1.106-1.106-.995.995 1.106 1.106Zm1.99-1.99.996-.996-1.106-1.106-.995.995 1.106 1.106Zm1.991-1.992.996-.995-1.106-1.106-.996.995 1.106 1.106Zm1.99-1.99.996-.996-1.106-1.106-.995.996 1.106 1.106Z" clip-rule="evenodd"></path>
								</svg>